<svg xmlns="http://www.w3.org/2000/svg" width="20" height="20" fill="none"><g clip-path="url('#a')"><path stroke="#344054" stroke-linecap="round" stroke-linejoin="round" stroke-width="1.67" d="M4.167 12.5h-.834a1.666 1.666 0 0 1-1.667-1.667v-7.5a1.667 1.667 0 0 1 1.667-1.667h7.5A1.667 1.667 0 0 1 12.5 3.333v.833M9.166 7.499h7.5c.921 0 1.667.747 1.667 1.667v7.5c0 .92-.746 1.667-1.666 1.667h-7.5c-.921 0-1.667-.746-1.667-1.667v-7.5c0-.92.746-1.667 1.666-1.667Z"></path></g><defs><clipPath id="a"><path fill="#fff" d="M0 0h20v20H0z"></path></clipPath></defs></svg>