<svg
    xmlns="http://www.w3.org/2000/svg"
    width="126"
    height="32"
    viewBox="0 0 126 32"
    fill="none"
>
  <path
      fill="#6938EF"
      fill-rule="evenodd"
      d="M15.583 24.311a8.311 8.311 0 1 0 0-16.622 8.311 8.311 0 0 0 0 16.622Zm0 6.356c8.1 0 14.667-6.567 14.667-14.667S23.683 1.334 15.583 1.334.917 7.9.917 16c0 8.1 6.566 14.667 14.666 14.667Z"
      clip-rule="evenodd"
  />
  <path
      fill="#F670C7"
      d="M15.751 16.321a3.911 3.911 0 0 1 5.531 0l7.605 7.606a3.911 3.911 0 1 1-5.53 5.53l-7.606-7.605a3.911 3.911 0 0 1 0-5.53Z"
  />
  <path
      fill="#6519BA"
      d="m17.886 23.988 4.83 4.83a14.738 14.738 0 0 0 5.574-5.489l-4.79-4.79a8.33 8.33 0 0 1-5.614 5.449Z"
  />
  <path
      fill="#101828"
      d="M53.93 24.067a4.16 4.16 0 0 1-1.55 1.194 4.692 4.692 0 0 1-1.978.411c-.97 0-1.848-.212-2.632-.635-.784-.41-1.68-1.145-2.688-2.202-1.182-.15-2.24-.53-3.173-1.139a6.54 6.54 0 0 1-2.166-2.352c-.51-.97-.765-2.04-.765-3.21 0-1.282.305-2.434.915-3.454a6.574 6.574 0 0 1 2.557-2.427c1.095-.584 2.32-.877 3.677-.877 1.357 0 2.576.293 3.659.877a6.575 6.575 0 0 1 2.557 2.427c.623 1.02.934 2.172.934 3.453 0 1.519-.43 2.85-1.288 3.995-.846 1.145-1.973 1.941-3.379 2.39.311.323.61.553.896.69a2.1 2.1 0 0 0 .952.224c.809 0 1.518-.323 2.128-.97l1.344 1.605Zm-11.89-7.934c0 .81.174 1.531.522 2.166.36.634.852 1.132 1.475 1.493.622.348 1.319.523 2.09.523.772 0 1.469-.175 2.091-.523a3.817 3.817 0 0 0 1.456-1.493c.36-.635.541-1.357.541-2.166 0-.808-.18-1.53-.541-2.165a3.69 3.69 0 0 0-1.456-1.475c-.622-.36-1.32-.54-2.09-.54-.772 0-1.47.18-2.091.54a3.817 3.817 0 0 0-1.475 1.475c-.348.635-.523 1.357-.523 2.165ZM65.461 12.624v10.043H62.7v-1.195a3.965 3.965 0 0 1-1.382 1.008 4.45 4.45 0 0 1-1.736.336c-1.319 0-2.364-.38-3.136-1.139-.771-.759-1.157-1.885-1.157-3.378v-5.675H58.2v5.245c0 1.618.678 2.427 2.035 2.427.697 0 1.257-.224 1.68-.672.423-.46.634-1.139.634-2.035v-4.965h2.912ZM72.938 22.816c-1.058 0-2.01-.218-2.856-.653a5.008 5.008 0 0 1-1.96-1.848c-.473-.784-.71-1.674-.71-2.67 0-.995.237-1.885.71-2.669a4.877 4.877 0 0 1 1.96-1.83c.846-.447 1.798-.671 2.856-.671 1.058 0 2.003.224 2.837.672a4.877 4.877 0 0 1 1.96 1.83c.473.783.71 1.673.71 2.668 0 .996-.237 1.886-.71 2.67a5.008 5.008 0 0 1-1.96 1.848c-.834.435-1.78.653-2.837.653Zm0-2.39c.746 0 1.356-.248 1.83-.746.484-.51.727-1.188.727-2.035 0-.846-.243-1.518-.728-2.016-.473-.51-1.082-.765-1.83-.765-.746 0-1.362.255-1.847.765-.486.498-.728 1.17-.728 2.016 0 .847.243 1.525.728 2.035.485.498 1.101.747 1.848.747ZM86.868 22.181c-.286.212-.64.374-1.064.486-.41.1-.846.15-1.306.15-1.195 0-2.122-.306-2.782-.916-.647-.61-.97-1.505-.97-2.688v-4.125h-1.55v-2.24h1.55v-2.445h2.912v2.445h2.5v2.24h-2.5v4.088c0 .423.105.753.317.99.224.223.535.335.933.335.46 0 .853-.124 1.176-.373l.784 2.053ZM88.503 12.624h2.912v10.043h-2.912V12.624Zm1.456-1.4c-.535 0-.97-.155-1.307-.467a1.514 1.514 0 0 1-.504-1.157c0-.46.168-.846.504-1.157.336-.311.772-.467 1.307-.467.535 0 .97.15 1.306.448.337.299.504.672.504 1.12 0 .485-.168.89-.504 1.213-.335.312-.771.467-1.306.467ZM103.955 17.683c0 .037-.019.298-.056.784h-7.597c.136.622.46 1.114.97 1.474.51.361 1.145.542 1.904.542.523 0 .983-.075 1.381-.224a3.46 3.46 0 0 0 1.139-.747l1.549 1.68c-.945 1.083-2.327 1.624-4.144 1.624-1.132 0-2.134-.218-3.005-.653-.871-.448-1.543-1.064-2.016-1.848-.473-.784-.71-1.674-.71-2.67 0-.983.231-1.866.691-2.65a4.9 4.9 0 0 1 1.923-1.848c.822-.448 1.736-.672 2.744-.672.983 0 1.873.211 2.669.634a4.553 4.553 0 0 1 1.867 1.83c.461.784.691 1.698.691 2.744Zm-5.208-3.006c-.66 0-1.213.187-1.662.56-.447.374-.721.884-.82 1.531h4.946c-.1-.635-.374-1.139-.822-1.512-.447-.386-.995-.579-1.642-.579ZM111.997 12.475c1.245 0 2.247.373 3.006 1.12.771.746 1.157 1.854 1.157 3.322v5.75h-2.912v-5.302c0-.796-.174-1.387-.522-1.773-.349-.398-.853-.597-1.512-.597-.735 0-1.32.23-1.755.69-.436.448-.653 1.12-.653 2.016v4.966h-2.912V12.624h2.781V13.8a3.774 3.774 0 0 1 1.437-.97 4.894 4.894 0 0 1 1.885-.355ZM125.277 22.181a3.11 3.11 0 0 1-1.064.486c-.411.1-.846.15-1.307.15-1.194 0-2.121-.306-2.781-.916-.647-.61-.971-1.505-.971-2.688v-4.125h-1.549v-2.24h1.549v-2.445h2.912v2.445h2.502v2.24h-2.502v4.088c0 .423.106.753.318.99.224.223.535.335.933.335.461 0 .853-.124 1.176-.373l.784 2.053Z"
  />
</svg>