<svg
    xmlns="http://www.w3.org/2000/svg"
    width="142"
    height="40"
    viewBox="0 0 142 40"
    fill="none"
>
  <path fill="#039855" d="M.75 16h8v8h-8z" />
  <path fill="#027A48" d="M24.75 24h-8v-8h8z" />
  <path fill="#A6F4C5" d="m8.75 16 8-8v8l-8 8v-8Z" />
  <path fill="#6CE9A6" d="m16.75 24-8 8v-8l8-8v8Z" />
  <path fill="#32D583" d="m.75 16 16-16v8l-8 8h-8Z" />
  <path fill="#12B76A" d="m24.75 24-16 16v-8l8-8h8Z" />
  <path
      fill="#101828"
      d="M42.173 28.567c-1.26 0-2.48-.18-3.663-.537-1.167-.358-2.092-.832-2.777-1.424l1.05-2.356c.67.529 1.486.964 2.45 1.306.98.327 1.96.49 2.94.49 1.214 0 2.116-.194 2.707-.583.607-.389.91-.902.91-1.54 0-.466-.171-.848-.513-1.143-.327-.311-.747-.552-1.26-.724a28.31 28.31 0 0 0-2.1-.583c-1.245-.295-2.256-.591-3.034-.886A5.137 5.137 0 0 1 36.9 19.21c-.544-.638-.817-1.494-.817-2.567 0-.902.242-1.719.724-2.45.497-.746 1.236-1.338 2.216-1.773.996-.436 2.21-.653 3.64-.653.996 0 1.976.124 2.94.373.965.249 1.797.606 2.497 1.073l-.957 2.357a9.435 9.435 0 0 0-2.24-.957 8.378 8.378 0 0 0-2.263-.326c-1.198 0-2.092.202-2.683.606-.576.405-.864.941-.864 1.61 0 .467.164.848.49 1.143.343.296.77.53 1.284.7.513.172 1.213.366 2.1.584 1.213.28 2.209.575 2.986.887a4.914 4.914 0 0 1 1.984 1.376c.56.622.84 1.462.84 2.52 0 .902-.25 1.719-.747 2.45-.482.731-1.221 1.315-2.217 1.75-.995.436-2.209.654-3.64.654ZM51.505 15.873h2.916v12.46h-2.916v-12.46Zm1.47-2.053c-.53 0-.973-.164-1.33-.49a1.676 1.676 0 0 1-.537-1.26c0-.498.179-.91.537-1.237.357-.342.8-.513 1.33-.513.528 0 .972.163 1.33.49.357.31.536.708.536 1.19 0 .513-.179.949-.537 1.306-.342.343-.785.514-1.33.514ZM62.1 28.497c-1.012 0-2-.133-2.964-.397-.965-.265-1.735-.6-2.31-1.004l1.12-2.216c.56.373 1.229.677 2.007.91a8.79 8.79 0 0 0 2.333.326c1.742 0 2.613-.458 2.613-1.376 0-.436-.225-.74-.676-.91-.436-.171-1.144-.335-2.124-.49-1.026-.156-1.866-.335-2.52-.537a3.991 3.991 0 0 1-1.68-1.05c-.466-.513-.7-1.221-.7-2.123 0-1.182.49-2.123 1.47-2.823.996-.716 2.334-1.074 4.014-1.074.855 0 1.71.101 2.566.303.856.187 1.556.444 2.1.77l-1.12 2.217c-1.058-.622-2.248-.933-3.57-.933-.855 0-1.509.132-1.96.396-.435.25-.653.584-.653 1.004 0 .466.233.8.7 1.003.482.187 1.221.366 2.217.537.995.155 1.812.334 2.45.537a3.75 3.75 0 0 1 1.633 1.026c.467.482.7 1.167.7 2.053 0 1.167-.506 2.1-1.517 2.8-1.01.7-2.387 1.05-4.13 1.05ZM81.697 15.873l-5.834 13.464c-.544 1.353-1.205 2.302-1.983 2.846-.778.56-1.719.84-2.823.84a5.795 5.795 0 0 1-1.844-.303c-.606-.202-1.104-.482-1.493-.84l1.167-2.147c.28.265.606.475.98.63.388.156.777.233 1.166.233.514 0 .934-.132 1.26-.396.342-.265.654-.708.934-1.33l.21-.49L68 15.873h3.033l3.92 9.217 3.944-9.217h2.8ZM90.426 15.733c1.213 0 2.295.265 3.243.793a5.7 5.7 0 0 1 2.264 2.24c.544.965.816 2.077.816 3.337 0 1.26-.272 2.38-.816 3.36a5.7 5.7 0 0 1-2.264 2.24c-.948.529-2.03.794-3.243.794-1.68 0-3.01-.56-3.99-1.68v6.043H83.52V15.873h2.777v1.633a4.53 4.53 0 0 1 1.773-1.33c.716-.295 1.502-.443 2.357-.443ZM90.1 26c1.073 0 1.952-.358 2.636-1.073.7-.716 1.05-1.657 1.05-2.824 0-1.167-.35-2.108-1.05-2.823-.684-.716-1.563-1.074-2.636-1.074-.7 0-1.33.164-1.89.49a3.377 3.377 0 0 0-1.33 1.354c-.327.59-.49 1.275-.49 2.053s.163 1.462.49 2.053a3.54 3.54 0 0 0 1.33 1.377c.56.311 1.19.467 1.89.467ZM106.586 15.733c1.571 0 2.831.459 3.78 1.377.948.918 1.423 2.279 1.423 4.083v7.14h-2.917v-6.766c0-1.09-.256-1.906-.77-2.45-.513-.56-1.244-.84-2.193-.84-1.073 0-1.921.326-2.543.98-.623.637-.934 1.563-.934 2.776v6.3h-2.916V11.02h2.916v6.3a4.645 4.645 0 0 1 1.774-1.167c.715-.28 1.508-.42 2.38-.42ZM127.552 15.873v12.46h-2.776v-1.586c-.467.56-1.05.995-1.75 1.306-.7.296-1.455.444-2.264.444-1.664 0-2.979-.46-3.943-1.377-.949-.934-1.423-2.31-1.423-4.13v-7.117h2.916v6.72c0 1.12.249 1.96.747 2.52.513.545 1.237.817 2.17.817 1.042 0 1.867-.32 2.473-.957.622-.653.934-1.586.934-2.8v-6.3h2.916ZM135.221 28.497a11.15 11.15 0 0 1-2.963-.397c-.965-.265-1.735-.6-2.31-1.004l1.12-2.216c.56.373 1.229.677 2.006.91a8.794 8.794 0 0 0 2.334.326c1.742 0 2.613-.458 2.613-1.376 0-.436-.226-.74-.677-.91-.435-.171-1.143-.335-2.123-.49-1.027-.156-1.867-.335-2.52-.537a3.989 3.989 0 0 1-1.68-1.05c-.467-.513-.7-1.221-.7-2.123 0-1.182.49-2.123 1.47-2.823.996-.716 2.333-1.074 4.013-1.074.856 0 1.711.101 2.567.303.856.187 1.556.444 2.1.77l-1.12 2.217c-1.058-.622-2.248-.933-3.57-.933-.856 0-1.509.132-1.96.396-.436.25-.653.584-.653 1.004 0 .466.233.8.7 1.003.482.187 1.221.366 2.216.537.996.155 1.813.334 2.45.537a3.75 3.75 0 0 1 1.634 1.026c.466.482.7 1.167.7 2.053 0 1.167-.506 2.1-1.517 2.8-1.011.7-2.388 1.05-4.13 1.05Z"
  />
</svg>