
<svg
    xmlns="http://www.w3.org/2000/svg"
    width="98"
    height="32"
    viewBox="0 0 98 32"
    fill="none"
>
  <path
      fill="#9E77ED"
      d="M9.268 14.879c.548-2.045 2.651-4.148 4.696-4.696l12.753-3.418c2.046-.548 3.26.666 2.711 2.711L26.011 22.23c-.549 2.046-2.651 4.148-4.697 4.696L8.562 30.343c-2.046.548-3.26-.666-2.711-2.711l3.417-12.753Z"
  />
  <path
      fill="#6941C6"
      d="M4.156 9.766c.548-2.045 2.65-4.148 4.696-4.696l12.753-3.418c2.045-.548 3.26.666 2.711 2.712l-3.418 12.752c-.548 2.046-2.65 4.148-4.696 4.697L3.45 25.23c-2.045.548-3.259-.666-2.71-2.711L4.155 9.766Z"
  />
  <path
      fill="#101828"
      d="M41.278 20.95h4.387v1.717H39.15V9.693h2.128V20.95ZM46.735 17.477c0-1.032.211-1.947.635-2.744.435-.796 1.02-1.412 1.754-1.848a4.7 4.7 0 0 1 2.464-.672c.81 0 1.512.162 2.11.486.61.31 1.095.703 1.456 1.176V12.38H57.3v10.286h-2.146v-1.531c-.361.485-.853.89-1.475 1.213-.622.324-1.332.486-2.128.486a4.57 4.57 0 0 1-2.427-.672c-.734-.46-1.319-1.095-1.755-1.904-.423-.822-.634-1.749-.634-2.782Zm8.419.038c0-.71-.15-1.326-.449-1.848a3.015 3.015 0 0 0-1.138-1.195 3.003 3.003 0 0 0-1.53-.41c-.548 0-1.059.136-1.532.41-.472.261-.858.653-1.157 1.176-.286.51-.43 1.12-.43 1.83 0 .709.144 1.33.43 1.866.299.535.685.946 1.157 1.232.486.274.996.41 1.531.41.548 0 1.058-.136 1.53-.41a3.015 3.015 0 0 0 1.14-1.195c.298-.535.447-1.157.447-1.866ZM69.354 12.381l-6.31 15.12h-2.202l2.09-5.002-4.05-10.118h2.37l2.894 7.84 3.005-7.84h2.203ZM80.386 17.272c0 .386-.024.734-.074 1.045h-7.859c.062.822.367 1.481.915 1.979.547.498 1.22.747 2.016.747 1.145 0 1.954-.48 2.427-1.438h2.295a4.665 4.665 0 0 1-1.698 2.334c-.81.597-1.817.896-3.024.896-.983 0-1.867-.218-2.65-.654a4.883 4.883 0 0 1-1.83-1.866c-.436-.81-.653-1.742-.653-2.8 0-1.058.211-1.985.634-2.782a4.592 4.592 0 0 1 1.81-1.866c.785-.436 1.68-.654 2.689-.654.97 0 1.835.212 2.594.635.76.423 1.35 1.02 1.774 1.792.423.76.635 1.636.635 2.632Zm-2.22-.672c-.013-.784-.293-1.412-.84-1.885-.548-.473-1.227-.71-2.035-.71-.735 0-1.363.237-1.886.71-.523.46-.834 1.089-.933 1.885h5.693ZM84.609 13.875a3.291 3.291 0 0 1 1.232-1.214c.522-.298 1.138-.448 1.848-.448v2.203h-.542c-.834 0-1.468.212-1.904.635-.423.423-.634 1.157-.634 2.202v5.414H82.48V12.38h2.128v1.494ZM93.378 22.835c-.809 0-1.537-.143-2.184-.43-.635-.298-1.139-.697-1.512-1.194a3.023 3.023 0 0 1-.597-1.699h2.202c.038.436.243.803.616 1.101.386.287.865.43 1.438.43.597 0 1.058-.112 1.381-.336.336-.237.504-.535.504-.896 0-.386-.187-.672-.56-.859-.36-.187-.94-.392-1.736-.616-.772-.211-1.4-.417-1.885-.616a3.384 3.384 0 0 1-1.27-.915c-.348-.41-.522-.952-.522-1.624 0-.547.162-1.045.485-1.493.324-.46.784-.821 1.381-1.083.61-.261 1.307-.392 2.091-.392 1.17 0 2.11.299 2.819.896.722.585 1.107 1.388 1.157 2.408h-2.128c-.037-.46-.224-.827-.56-1.101-.336-.274-.79-.41-1.363-.41-.56 0-.989.105-1.288.317-.298.211-.448.491-.448.84 0 .274.1.504.299.69.2.187.442.336.728.448.286.1.71.23 1.27.392.746.2 1.356.405 1.829.616.485.2.902.498 1.25.896.349.399.53.928.542 1.587a2.66 2.66 0 0 1-.486 1.568c-.323.46-.784.821-1.381 1.083-.585.261-1.276.392-2.072.392Z"
  />
</svg>