<svg
    xmlns="http://www.w3.org/2000/svg"
    width="134"
    height="40"
    viewBox="0 0 134 40"
    fill="none"
>
  <path
      fill="#A4BCFD"
      d="M18.916 1.667C8.791 1.667.583 9.875.583 20c0 10.125 8.208 18.333 18.333 18.333 9.084 0 16.625-6.607 18.08-15.278h-.131c-1.357 5.272-6.143 9.167-11.838 9.167-6.75 0-12.222-5.472-12.222-12.222 0-6.75 5.472-12.222 12.223-12.222 5.695 0 10.48 3.895 11.837 9.166h.131C35.541 8.274 28 1.667 18.916 1.667Z"
  />
  <path
      fill="#3538CD"
      d="M.583 20c0-10.125 8.208-18.334 18.333-18.334 9.084 0 16.625 6.607 18.08 15.278H24.642c-1.356-5.271-6.142-9.166-11.837-9.166C6.055 7.778.583 13.25.583 20ZM.583 20c0 10.125 8.208 18.333 18.333 18.333 9.084 0 16.625-6.607 18.08-15.278H24.642c-1.356 5.272-6.142 9.167-11.837 9.167C6.055 32.222.583 26.75.583 20Z"
  />
  <path
      fill="#101828"
      d="M63.449 17.09c-.522-3.77-3.422-5.958-7.184-5.958-4.433 0-7.772 3.231-7.772 8.717 0 5.477 3.297 8.716 7.772 8.716 4.035 0 6.712-2.61 7.184-5.85l-3.1-.016c-.388 1.989-2.013 3.107-4.043 3.107-2.75 0-4.723-2.063-4.723-5.957 0-3.828 1.956-5.958 4.732-5.958 2.063 0 3.679 1.168 4.035 3.199h3.099ZM69.794 28.59c1.997 0 3.19-.936 3.737-2.005h.1v1.748h2.883v-8.517c0-3.365-2.743-4.375-5.17-4.375-2.677 0-4.732 1.193-5.395 3.513l2.8.398c.3-.87 1.144-1.616 2.61-1.616 1.393 0 2.155.712 2.155 1.963v.05c0 .862-.903.903-3.148 1.144-2.47.265-4.831 1.002-4.831 3.87 0 2.502 1.831 3.827 4.259 3.827Zm.779-2.204c-1.251 0-2.146-.571-2.146-1.673 0-1.152 1.002-1.633 2.345-1.823.787-.108 2.361-.307 2.75-.622v1.5c0 1.417-1.143 2.618-2.95 2.618ZM85.885 15.606h-2.51v-3.049h-3v3.05H78.57v2.32h1.806v7.076c-.016 2.394 1.724 3.57 3.977 3.505a6.029 6.029 0 0 0 1.765-.299l-.505-2.345a3.741 3.741 0 0 1-.878.116c-.754 0-1.36-.265-1.36-1.475v-6.579h2.511v-2.32ZM92.056 28.59c1.997 0 3.19-.936 3.737-2.005h.1v1.748h2.883v-8.517c0-3.365-2.742-4.375-5.17-4.375-2.677 0-4.732 1.193-5.394 3.513l2.8.398c.299-.87 1.144-1.616 2.61-1.616 1.392 0 2.155.712 2.155 1.963v.05c0 .862-.903.903-3.149 1.144-2.47.265-4.83 1.002-4.83 3.87 0 2.502 1.83 3.827 4.258 3.827Zm.78-2.204c-1.252 0-2.147-.571-2.147-1.673 0-1.152 1.003-1.633 2.345-1.823.787-.108 2.361-.307 2.75-.622v1.5c0 1.417-1.143 2.618-2.949 2.618ZM104.792 11.364h-3v16.97h3v-16.97ZM113.428 28.582c3.729 0 6.098-2.627 6.098-6.562 0-3.944-2.369-6.58-6.098-6.58-3.729 0-6.099 2.636-6.099 6.58 0 3.936 2.37 6.562 6.099 6.562Zm.016-2.403c-2.063 0-3.074-1.84-3.074-4.168 0-2.328 1.011-4.192 3.074-4.192 2.03 0 3.041 1.864 3.041 4.192 0 2.329-1.011 4.168-3.041 4.168ZM127.607 33.371c3.439 0 5.974-1.574 5.974-4.83V15.606h-2.958v2.105h-.165c-.456-.92-1.409-2.27-3.655-2.27-2.941 0-5.253 2.303-5.253 6.487 0 4.152 2.312 6.223 5.245 6.223 2.179 0 3.199-1.168 3.663-2.104h.149v2.41c0 1.873-1.243 2.644-2.95 2.644-1.806 0-2.602-.853-2.966-1.6l-2.702.655c.547 1.782 2.378 3.215 5.618 3.215Zm.025-7.573c-1.98 0-3.024-1.541-3.024-3.886 0-2.312 1.027-4.01 3.024-4.01 1.931 0 2.991 1.599 2.991 4.01 0 2.428-1.077 3.886-2.991 3.886Z"
  />
</svg>