<svg xmlns="http://www.w3.org/2000/svg" width="145" height="38" viewBox="0 0 145 38" fill="none">
  <g filter="url('#a')">
    <g clip-path="url('#b')">
      <rect width="32" height="32" x="3" y="2" fill="#fff" rx="8"></rect>
      <rect width="32" height="32" x="3" y="2" fill="url('#c')" rx="8"></rect>
      <path fill="#D0D5DD" fill-rule="evenodd" d="M19 4.039c-7.71 0-13.961 6.25-13.961 13.96 0 7.711 6.25 13.962 13.96 13.962 7.711 0 13.962-6.25 13.962-13.961 0-7.71-6.25-13.961-13.961-13.961ZM4.96 17.999c0-7.753 6.286-14.038 14.04-14.038 7.753 0 14.039 6.285 14.039 14.039 0 7.753-6.286 14.039-14.04 14.039-7.753 0-14.038-6.286-14.038-14.04Z" clip-rule="evenodd"></path>
      <path fill="#D0D5DD" fill-rule="evenodd" d="M19 14.078a3.922 3.922 0 1 0 0 7.844 3.922 3.922 0 0 0 0-7.844ZM15 18a4 4 0 1 1 8 0 4 4 0 0 1-8 0Z" clip-rule="evenodd"></path>
      <path fill="#D0D5DD" fill-rule="evenodd" d="M19 15.32a2.68 2.68 0 1 0 0 5.36 2.68 2.68 0 0 0 0-5.36ZM16.243 18a2.757 2.757 0 1 1 5.514 0 2.757 2.757 0 0 1-5.514 0Z" clip-rule="evenodd"></path>
      <path fill="#D0D5DD" d="M18.96 2h.079v32h-.078V2Z"></path>
      <path fill="#D0D5DD" d="M35 17.96v.079H3v-.078h32Z"></path>
      <path fill="#D0D5DD" d="M29.602 2h.078v32h-.078V2ZM13.64 2h.078v32h-.077V2ZM24.282 2h.077v32h-.077V2ZM8.32 2h.078v32H8.32V2Z"></path>
      <path fill="#D0D5DD" d="M35 28.602v.077H3v-.077h32ZM35 12.64v.078H3v-.077h32ZM35 23.281v.078H3v-.078h32ZM35 7.32v.078H3V7.32h32Z"></path>
      <g filter="url('#d')"><circle cx="19" cy="18" r="8" fill="url('#e')"></circle></g>
      <g filter="url('#f')">
        <path fill="#fff" fill-opacity=".2" d="M3 18h32v3.2c0 4.48 0 6.72-.872 8.432a8 8 0 0 1-3.496 3.496C28.92 34 26.68 34 22.2 34h-6.4c-4.48 0-6.72 0-8.432-.872a8 8 0 0 1-3.496-3.496C3 27.92 3 25.68 3 21.2V18Z"></path>
      </g>
    </g>
    <rect width="31.8" height="31.8" x="3.1" y="2.1" stroke="#D0D5DD" stroke-width=".2" rx="7.9"></rect>
  </g>
  <path fill="#fff" d="M54.354 10.454v9.389c0 1.974-1.364 3.395-3.58 3.395-2.209 0-3.58-1.42-3.58-3.395v-9.39H45v9.567c0 3.054 2.287 5.22 5.774 5.22s5.781-2.166 5.781-5.22v-9.566h-2.201ZM61.7 18.522c0-1.74 1.065-2.735 2.542-2.735 1.442 0 2.315.945 2.315 2.529v6.683h2.124V18.06c0-2.699-1.485-4.112-3.715-4.112-1.64 0-2.713.76-3.217 1.917h-.135V14.09h-2.038v10.909h2.123v-6.477ZM76.621 14.09h-2.237v-2.614H72.26v2.614h-1.598v1.704h1.598v6.442c-.007 1.982 1.506 2.94 3.182 2.905.675-.007 1.13-.135 1.378-.227l-.384-1.755c-.142.029-.404.093-.745.093-.69 0-1.307-.227-1.307-1.456v-6.002h2.237V14.09ZM78.97 24.999h2.124v-10.91H78.97V25Zm1.073-12.592c.731 0 1.342-.569 1.342-1.265s-.61-1.27-1.342-1.27c-.739 0-1.343.574-1.343 1.27 0 .696.604 1.265 1.343 1.265ZM89.043 14.09h-2.237v-2.614h-2.124v2.614h-1.598v1.704h1.598v6.442c-.007 1.982 1.506 2.94 3.182 2.905.675-.007 1.13-.135 1.378-.227l-.384-1.755c-.142.029-.404.093-.745.093-.69 0-1.307-.227-1.307-1.456v-6.002h2.237V14.09ZM93.75 10.454h-2.124v14.545h2.124V10.454ZM101.309 25.22c2.379 0 4.062-1.173 4.545-2.948l-2.01-.363c-.383 1.03-1.307 1.556-2.514 1.556-1.818 0-3.04-1.18-3.097-3.281h7.756v-.753c0-3.942-2.358-5.483-4.83-5.483-3.04 0-5.042 2.315-5.042 5.667 0 3.388 1.974 5.604 5.192 5.604Zm-3.069-6.627c.086-1.549 1.208-2.89 2.934-2.89 1.647 0 2.727 1.22 2.734 2.89H98.24ZM112.429 25.212c1.989 0 2.77-1.215 3.153-1.91h.178v1.697h2.074V10.454h-2.124v5.404h-.128c-.383-.674-1.108-1.91-3.139-1.91-2.635 0-4.574 2.08-4.574 5.618 0 3.53 1.911 5.646 4.56 5.646Zm.469-1.811c-1.897 0-2.884-1.67-2.884-3.857 0-2.166.966-3.792 2.884-3.792 1.853 0 2.848 1.513 2.848 3.792 0 2.294-1.016 3.857-2.848 3.857ZM135.682 10.454v9.389c0 1.974-1.364 3.395-3.58 3.395-2.209 0-3.579-1.42-3.579-3.395v-9.39h-2.195v9.567c0 3.054 2.287 5.22 5.774 5.22s5.782-2.166 5.782-5.22v-9.566h-2.202ZM143.269 10.454h-2.195v14.545h2.195V10.454Z"></path>
  <defs>
    <filter id="a" width="38" height="38" x="0" y="0" color-interpolation-filters="sRGB" filterUnits="userSpaceOnUse">
      <feFlood flood-opacity="0" result="BackgroundImageFix"></feFlood>
      <feColorMatrix in="SourceAlpha" result="hardAlpha" values="0 0 0 0 0 0 0 0 0 0 0 0 0 0 0 0 0 0 127 0"></feColorMatrix>
      <feOffset dy="1"></feOffset>
      <feGaussianBlur stdDeviation="1"></feGaussianBlur>
      <feColorMatrix values="0 0 0 0 0.0627451 0 0 0 0 0.0941176 0 0 0 0 0.156863 0 0 0 0.06 0"></feColorMatrix>
      <feBlend in2="BackgroundImageFix" result="effect1_dropShadow_5348_336943"></feBlend>
      <feColorMatrix in="SourceAlpha" result="hardAlpha" values="0 0 0 0 0 0 0 0 0 0 0 0 0 0 0 0 0 0 127 0"></feColorMatrix>
      <feOffset dy="1"></feOffset>
      <feGaussianBlur stdDeviation="1.5"></feGaussianBlur>
      <feColorMatrix values="0 0 0 0 0.0627451 0 0 0 0 0.0941176 0 0 0 0 0.156863 0 0 0 0.1 0"></feColorMatrix>
      <feBlend in2="effect1_dropShadow_5348_336943" result="effect2_dropShadow_5348_336943"></feBlend>
      <feBlend in="SourceGraphic" in2="effect2_dropShadow_5348_336943" result="shape"></feBlend>
    </filter>
    <filter id="d" width="22" height="22" x="8" y="8" color-interpolation-filters="sRGB" filterUnits="userSpaceOnUse">
      <feFlood flood-opacity="0" result="BackgroundImageFix"></feFlood>
      <feColorMatrix in="SourceAlpha" result="hardAlpha" values="0 0 0 0 0 0 0 0 0 0 0 0 0 0 0 0 0 0 127 0"></feColorMatrix>
      <feOffset dy="1"></feOffset>
      <feGaussianBlur stdDeviation="1"></feGaussianBlur>
      <feColorMatrix values="0 0 0 0 0.0627451 0 0 0 0 0.0941176 0 0 0 0 0.156863 0 0 0 0.06 0"></feColorMatrix>
      <feBlend in2="BackgroundImageFix" result="effect1_dropShadow_5348_336943"></feBlend>
      <feColorMatrix in="SourceAlpha" result="hardAlpha" values="0 0 0 0 0 0 0 0 0 0 0 0 0 0 0 0 0 0 127 0"></feColorMatrix>
      <feOffset dy="1"></feOffset>
      <feGaussianBlur stdDeviation="1.5"></feGaussianBlur>
      <feColorMatrix values="0 0 0 0 0.0627451 0 0 0 0 0.0941176 0 0 0 0 0.156863 0 0 0 0.1 0"></feColorMatrix>
      <feBlend in2="effect1_dropShadow_5348_336943" result="effect2_dropShadow_5348_336943"></feBlend>
      <feBlend in="SourceGraphic" in2="effect2_dropShadow_5348_336943" result="shape"></feBlend>
    </filter>
    <filter id="f" width="42" height="26" x="-2" y="13" color-interpolation-filters="sRGB" filterUnits="userSpaceOnUse">
      <feFlood flood-opacity="0" result="BackgroundImageFix"></feFlood>
      <feGaussianBlur in="BackgroundImageFix" stdDeviation="2.5"></feGaussianBlur>
      <feComposite in2="SourceAlpha" operator="in" result="effect1_backgroundBlur_5348_336943"></feComposite>
      <feBlend in="SourceGraphic" in2="effect1_backgroundBlur_5348_336943" result="shape"></feBlend>
    </filter>
    <linearGradient id="c" x1="19" x2="19" y1="2" y2="34" gradientUnits="userSpaceOnUse">
      <stop stop-color="#fff"></stop>
      <stop offset="1" stop-color="#D0D5DD"></stop>
    </linearGradient>
    <linearGradient id="e" x1="15" x2="23" y1="26" y2="10" gradientUnits="userSpaceOnUse">
      <stop stop-color="#53389E"></stop>
      <stop offset="1" stop-color="#6941C6"></stop>
    </linearGradient>
    <clipPath id="b">
      <rect width="32" height="32" x="3" y="2" fill="#fff" rx="8"></rect>
    </clipPath>
  </defs>
</svg>